<?xml version="1.0" standalone="no"?><!DOCTYPE svg PUBLIC "-//W3C//DTD SVG 1.1//EN" "http://www.w3.org/Graphics/SVG/1.1/DTD/svg11.dtd"><svg t="1682572013632" class="icon" viewBox="0 0 1024 1024" version="1.1" xmlns="http://www.w3.org/2000/svg" p-id="23272" xmlns:xlink="http://www.w3.org/1999/xlink" width="300" height="300"><path d="M508.816 41.74l33.43 33.371-266.909 266.85-33.37-33.371z" fill="#000000" p-id="23273"></path><path d="M778.26 306.29l-33.37 33.372-266.733-266.85L511.47 39.5z m181.006 312.662l23.583-41.271-194.565-129.71-23.584 35.375z m-188.67-88.439V984.5h188.67V660.224l-188.67-129.71z m135.607 253.525h-94.335v-94.335h94.335v94.335zM63.083 618.952L39.5 577.68l194.566-129.71 23.583 35.375z m188.67-88.439L63.083 654.328v324.276h188.67v-448.09z m-41.271 253.525h-94.335v-94.335h94.335v94.335z m518.842-395.027L511.175 159.069l-218.15 229.942V984.5h123.814V854.79c0-53.064 41.272-94.335 94.335-94.335s94.335 41.271 94.335 94.335V984.5h123.814V389.01zM499.383 636.639h-94.335v-94.333h94.335v94.334z m0-129.71h-94.335v-94.334h94.335v94.335z m135.606 129.71h-94.334v-94.333h94.334v94.334z m0-129.71h-94.334v-94.334h94.334v94.335z" fill="#000000" p-id="23274"></path></svg>